<svg id="Capa_1" enable-background="new 0 0 511.9 511.9" height="512" viewBox="0 0 511.9 511.9" width="512" xmlns="http://www.w3.org/2000/svg"><g><path d="m511.9 103.43v305.04c0 16.55-13.46 30-30 30h-451.9c-16.54 0-30-13.45-30-30v-305.04c0-16.55 13.46-30 30-30h451.9c16.54 0 30 13.45 30 30z" fill="#ebebff"/><path d="m511.9 103.43v305.04c0 16.55-13.46 30-30 30h-225.95v-365.04h225.95c16.54 0 30 13.45 30 30z" fill="#dcdcff"/><g fill="#002860"><path d="m210.95 354.425h-134.284c-8.284 0-15 6.716-15 15s6.716 15 15 15h134.284c8.284 0 15-6.716 15-15s-6.716-15-15-15z"/><path d="m76.666 324.425h89.234c8.284 0 15-6.716 15-15s-6.716-15-15-15h-89.234c-8.284 0-15 6.716-15 15s6.716 15 15 15z"/><path d="m0 125.95h511.9v90h-511.9z"/></g><path d="m255.95 125.95h255.95v90h-255.95z" fill="#001d45"/><path d="m450.9 326c0 48.967-55.555 76.803-94.74 48.82 39.703-20.583 39.516-77.183-.01-97.64 39.354-28.076 94.75-.005 94.75 48.82z" fill="#ff9100"/><circle cx="330.95" cy="326" fill="#e20016" r="59.95"/></g></svg>