<svg height="512" viewBox="0 0 64 64" width="512" xmlns="http://www.w3.org/2000/svg"><circle cx="5" cy="32" fill="#ff5023" r="2"/><circle cx="8" cy="46" fill="#ff5023" r="2"/><circle cx="16" cy="59" fill="#ff5023" r="2"/><circle cx="32" cy="59" fill="#ff5023" r="2"/><circle cx="48" cy="59" fill="#ff5023" r="2"/><circle cx="56" cy="46" fill="#ff5023" r="2"/><circle cx="59" cy="32" fill="#ff5023" r="2"/><circle cx="56" cy="18" fill="#ff5023" r="2"/><rect fill="#c6c5ca" height="24" rx="1" width="16" x="24" y="20"/><circle cx="32" cy="26" fill="#ff9811" r="2"/><circle cx="8" cy="18" fill="#ff5023" r="2"/><circle cx="16" cy="5" fill="#ff5023" r="2"/><circle cx="48" cy="5" fill="#ff5023" r="2"/><circle cx="32" cy="5" fill="#ff5023" r="2"/><path d="m28 37h8v2h-8z" fill="#898890"/><path d="m28 33h8v2h-8z" fill="#898890"/><path d="m50 25h-6v-2h5.586l2.707-2.707 1.414 1.414-3 3a1 1 0 0 1 -.707.293z" fill="#ffa733"/><path d="m52.293 43.707-2.707-2.707h-5.586v-2h6a1 1 0 0 1 .707.293l3 3z" fill="#ffa733"/><path d="m44 31h10v2h-10z" fill="#ffa733"/><path d="m20 25h-6a1 1 0 0 1 -.707-.293l-3-3 1.414-1.414 2.707 2.707h5.586z" fill="#ffa733"/><path d="m11.707 43.707-1.414-1.414 3-3a1 1 0 0 1 .707-.293h6v2h-5.586z" fill="#ffa733"/><path d="m10 31h10v2h-10z" fill="#ffa733"/><path d="m24.023 14h6.977v3h2v-3h6.977a1 1 0 0 0 .707-.293l4.016-4.007-1.419-1.419-3.719 3.719h-6.562v-2h-2v2h-6.562l-3.719-3.719-1.414 1.419 4.011 4.012a1 1 0 0 0 .707.288z" fill="#ffa733"/><path d="m39.977 50h-6.977v-3h-2v3h-6.977a1 1 0 0 0 -.707.293l-4.011 4.012 1.414 1.414 3.719-3.719h6.562v2h2v-2h6.562l3.719 3.719 1.419-1.414-4.011-4.012a1 1 0 0 0 -.712-.293z" fill="#ffa733"/><g fill="#ff9811"><path d="m56 21a3 3 0 1 1 3-3 3 3 0 0 1 -3 3zm0-4a1 1 0 1 0 1 1 1 1 0 0 0 -1-1z"/><path d="m59 35a3 3 0 1 1 3-3 3 3 0 0 1 -3 3zm0-4a1 1 0 1 0 1 1 1 1 0 0 0 -1-1z"/><path d="m56 49a3 3 0 1 1 3-3 3 3 0 0 1 -3 3zm0-4a1 1 0 1 0 1 1 1 1 0 0 0 -1-1z"/><path d="m8 21a3 3 0 1 1 3-3 3 3 0 0 1 -3 3zm0-4a1 1 0 1 0 1 1 1 1 0 0 0 -1-1z"/><path d="m5 35a3 3 0 1 1 3-3 3 3 0 0 1 -3 3zm0-4a1 1 0 1 0 1 1 1 1 0 0 0 -1-1z"/><path d="m8 49a3 3 0 1 1 3-3 3 3 0 0 1 -3 3zm0-4a1 1 0 1 0 1 1 1 1 0 0 0 -1-1z"/><path d="m32 8a3 3 0 1 1 3-3 3 3 0 0 1 -3 3zm0-4a1 1 0 1 0 1 1 1 1 0 0 0 -1-1z"/><path d="m48 8a3 3 0 1 1 3-3 3 3 0 0 1 -3 3zm0-4a1 1 0 1 0 1 1 1 1 0 0 0 -1-1z"/><path d="m16 8a3 3 0 1 1 3-3 3 3 0 0 1 -3 3zm0-4a1 1 0 1 0 1 1 1 1 0 0 0 -1-1z"/><path d="m32 62a3 3 0 1 1 3-3 3 3 0 0 1 -3 3zm0-4a1 1 0 1 0 1 1 1 1 0 0 0 -1-1z"/><path d="m48 62a3 3 0 1 1 3-3 3 3 0 0 1 -3 3zm0-4a1 1 0 1 0 1 1 1 1 0 0 0 -1-1z"/><path d="m16 62a3 3 0 1 1 3-3 3 3 0 0 1 -3 3zm0-4a1 1 0 1 0 1 1 1 1 0 0 0 -1-1z"/></g></svg>