<svg height="512" viewBox="0 0 64 64" width="512" xmlns="http://www.w3.org/2000/svg"><g id="Flat"><g id="Color_copy" data-name="Color copy"><g><path d="m50 51a1 1 0 0 1 -1-1v-3a3 3 0 0 1 3-3h5a1 1 0 0 0 1-1v-5a1 1 0 0 1 2 0v5a3 3 0 0 1 -3 3h-5a1 1 0 0 0 -1 1v3a1 1 0 0 1 -1 1z" fill="#57b7eb"/><path d="m26 50a1 1 0 0 1 -1-1v-2a3 3 0 0 1 3-3h13a1 1 0 0 0 1-1v-3a3 3 0 0 1 3-3h5a1 1 0 0 1 0 2h-5a1 1 0 0 0 -1 1v3a3 3 0 0 1 -3 3h-13a1 1 0 0 0 -1 1v2a1 1 0 0 1 -1 1z" fill="#57b7eb"/><path d="m21 30h6v8h-6z" fill="#fcbc04"/><path d="m38 41a98.965 98.965 0 0 0 -28 0v-4a98.965 98.965 0 0 1 28 0z" fill="#fcbc04"/><path d="m27 31.561q-3-.062-6 0v4.5z" fill="#e59730"/><path d="m13 36.626a1.811 1.811 0 0 0 1.99 1.8 98.923 98.923 0 0 1 23.01.574v-2a98.962 98.962 0 0 0 -25-.374z" fill="#f9e109"/><path d="m45 33a148.485 148.485 0 0 0 -42 0v-22a148.485 148.485 0 0 0 42 0z" fill="#aae1f9"/><path d="m24.845 26.517a15.955 15.955 0 0 1 -15.785-14.79c-2.023-.205-4.044-.439-6.06-.727v22a148.485 148.485 0 0 1 42 0v-5a147.949 147.949 0 0 0 -20.155-1.483z" fill="#57b7eb"/><path d="m38 28-4-3-2 2 3.3 4.95c2.077.159 4.151.37 6.222.616l-1.522-4.566z" fill="#f9e109"/><path d="m32 27 3.3 4.95q1.6.122 3.188.283c1.012.1 2.022.213 3.033.333l-1.521-4.566h-2l-1.227-.92q-2.265-.2-4.534-.319z" fill="#fcbc04"/><path d="m14 25-4 3h-2l-1.522 4.566c2.071-.246 4.145-.457 6.222-.616l3.3-4.95z" fill="#fcbc04"/><g fill="#f9e109"><path d="m11 20h-4v-4l4 1z"/><path d="m49 17h12v22h-12z"/><path d="m14 49h4v4h-4z"/><path d="m18 49h4v4h-4z"/><path d="m22 49h4v4h-4z"/><path d="m26 49h4v4h-4z"/><path d="m30 49h4v4h-4z"/><path d="m34 49h4v4h-4z"/><path d="m14 53h4v4h-4z"/><path d="m18 53h4v4h-4z"/><path d="m22 53h4v4h-4z"/><path d="m26 53h4v4h-4z"/><path d="m34 57h4v4h-4z"/><path d="m14 57h4v4h-4z"/><path d="m18 57h4v4h-4z"/><path d="m22 57h4v4h-4z"/><path d="m26 57h4v4h-4z"/><path d="m30 57h4v4h-4z"/><path d="m10 49h4v4h-4z"/><path d="m10 53h4v4h-4z"/><path d="m10 57h4v4h-4z"/><path d="m30 53h8v4h-8z"/></g><path d="m35 49h-1v4h4v-1a3 3 0 0 1 -3-3z" fill="#fcbc04"/><path d="m31 49h-1v4h4v-1a3 3 0 0 1 -3-3z" fill="#fcbc04"/><path d="m27 49h-1v4h4v-1a3 3 0 0 1 -3-3z" fill="#fcbc04"/><path d="m23 49h-1v4h4v-1a3 3 0 0 1 -3-3z" fill="#fcbc04"/><path d="m19 49h-1v4h4v-1a3 3 0 0 1 -3-3z" fill="#fcbc04"/><path d="m15 49h-1v4h4v-1a3 3 0 0 1 -3-3z" fill="#fcbc04"/><path d="m11 49h-1v4h4v-1a3 3 0 0 1 -3-3z" fill="#fcbc04"/><path d="m27 53h-1v4h4v-1a3 3 0 0 1 -3-3z" fill="#fcbc04"/><path d="m23 53h-1v4h4v-1a3 3 0 0 1 -3-3z" fill="#fcbc04"/><path d="m19 53h-1v4h4v-1a3 3 0 0 1 -3-3z" fill="#fcbc04"/><path d="m15 53h-1v4h4v-1a3 3 0 0 1 -3-3z" fill="#fcbc04"/><path d="m11 53h-1v4h4v-1a3 3 0 0 1 -3-3z" fill="#fcbc04"/><path d="m35 57h-1v4h4v-1a3 3 0 0 1 -3-3z" fill="#fcbc04"/><path d="m31 57h-1v4h4v-1a3 3 0 0 1 -3-3z" fill="#fcbc04"/><path d="m27 57h-1v4h4v-1a3 3 0 0 1 -3-3z" fill="#fcbc04"/><path d="m23 57h-1v4h4v-1a3 3 0 0 1 -3-3z" fill="#fcbc04"/><path d="m19 57h-1v4h4v-1a3 3 0 0 1 -3-3z" fill="#fcbc04"/><path d="m15 57h-1v4h4v-1a3 3 0 0 1 -3-3z" fill="#fcbc04"/><path d="m11 57h-1v4h4v-1a3 3 0 0 1 -3-3z" fill="#fcbc04"/><path d="m35 56a3.992 3.992 0 0 1 -3.859-3h-1.141v4h8v-1z" fill="#fcbc04"/><path d="m52 26v-9h-3v22h12v-3.05a10 10 0 0 1 -9-9.95z" fill="#fcbc04"/><path d="m49 22h12v5h-12z" fill="#aae1f9"/><circle cx="55" cy="33" fill="#f89c8d" r="2"/><path d="m53.669 31.517a1.993 1.993 0 1 0 2.814 2.814 10.028 10.028 0 0 1 -2.814-2.814z" fill="#f8664f"/><path d="m52 26v-4h-3v5h3.051a10.007 10.007 0 0 1 -.051-1z" fill="#57b7eb"/><path d="m33.415 26.622-.415-.622-1 1 3.3 4.95c2.077.159 4.151.37 6.222.616l-.39-1.171a10.963 10.963 0 0 1 -7.717-4.773z" fill="#fcbc04"/><path d="m13.608 29.513a2.211 2.211 0 0 1 -3.587-1.529l-.021.016h-2l-1.522 4.566c2.071-.246 4.145-.457 6.222-.616l2.443-3.664z" fill="#e59730"/><path d="m32 27 3.3 4.95q1.6.122 3.188.283c1.012.1 2.022.213 3.033.333l-.39-1.171a10.965 10.965 0 0 1 -7.557-4.559c-.445-.028-.891-.05-1.336-.075z" fill="#e59730"/><path d="m11 18.222q-.372-.677-.677-1.391l-3.323-.831v4h4z" fill="#fcbc04"/><path d="m24 27a5 5 0 1 1 5-5 5.006 5.006 0 0 1 -5 5zm0-8a3 3 0 1 0 3 3 3 3 0 0 0 -3-3z" fill="#f8664f"/><path d="m29 23h-2a1 1 0 0 1 0-2h2a1 1 0 0 1 0 2z" fill="#f89c8d"/><path d="m24 20a1 1 0 0 1 -1-1v-2a1 1 0 0 1 2 0v2a1 1 0 0 1 -1 1z" fill="#f89c8d"/><path d="m21 23h-2a1 1 0 0 1 0-2h2a1 1 0 0 1 0 2z" fill="#f89c8d"/><circle cx="24" cy="22" fill="#f89c8d" r="1"/><path d="m41 17h-4a1 1 0 0 1 0-2h4a1 1 0 0 1 0 2z" fill="#f8664f"/><path d="m41 21h-2a1 1 0 0 1 0-2h2a1 1 0 0 1 0 2z" fill="#f8664f"/><circle cx="31" cy="17" fill="#f9e109" r="1"/><circle cx="16" cy="19" fill="#f9e109" r="1"/><circle cx="34" cy="21" fill="#f9e109" r="1"/><circle cx="8" cy="24" fill="#fcbc04" r="1"/><path d="m26.06 26.544c-.4-.006-.81-.025-1.215-.027a15.8 15.8 0 0 1 -3.787-.5 4.9 4.9 0 0 0 5 .522z" fill="#cc5144"/><path d="m24 28a1 1 0 0 1 -1-1v-2a1 1 0 0 1 2 0v2a1 1 0 0 1 -1 1z" fill="#f89c8d"/><path d="m24.845 26.517a15.8 15.8 0 0 1 -1.845-.128v.611a1 1 0 0 0 2 0v-.48c-.052 0-.1-.003-.155-.003z" fill="#f8664f"/><g><path d="m51.5 60h-3a2 2 0 0 1 -2-2v-5.839a2 2 0 0 1 1.008-1.737l1.5-.857a2 2 0 0 1 1.984 0l1.5.857a2 2 0 0 1 1.008 1.737v5.839a2 2 0 0 1 -2 2z" fill="#f9e109"/><path d="m48 53v-2.857l-.492.281a2 2 0 0 0 -1.008 1.737v5.839a2 2 0 0 0 2 2h3a2 2 0 0 0 2-2h-.5a5 5 0 0 1 -5-5z" fill="#fcbc04"/><path d="m46.5 53h2a1 1 0 0 1 0 2h-2z" fill="#fcbc04"/><path d="m48 53h-1.5v2h1.922a4.979 4.979 0 0 1 -.422-2z" fill="#e59730"/></g></g></g></g></svg>