<?xml version="1.0" encoding="iso-8859-1"?>
<!-- Generator: Adobe Illustrator 19.0.0, SVG Export Plug-In . SVG Version: 6.00 Build 0)  -->
<svg version="1.1" id="Layer_1" xmlns="http://www.w3.org/2000/svg" xmlns:xlink="http://www.w3.org/1999/xlink" x="0px" y="0px"
	 viewBox="0 0 512 512" style="enable-background:new 0 0 512 512;" xml:space="preserve">
<g>
	<path style="fill:#F77935;" d="M432.46,331.575c-1.768,0-3.551-0.554-5.073-1.7c-3.724-2.805-4.466-8.097-1.66-11.82
		c13.057-17.326,16.612-54.016,20.049-89.499c2.621-27.052,5.332-55.024,12.391-76.234c8.753-26.299,23.838-39.634,44.831-39.634
		c4.662,0,8.44,3.779,8.44,8.44c0,4.661-3.778,8.44-8.44,8.44c-13.463,0-22.35,8.662-28.815,28.086
		c-6.458,19.403-9.074,46.412-11.606,72.531c-3.832,39.55-7.452,76.907-23.372,98.03
		C437.547,330.415,435.019,331.575,432.46,331.575z"/>
	<path style="fill:#F77935;" d="M379.402,332.713c-2.459,0-4.896-1.069-6.563-3.127c-14.537-17.944-17.421-47.908-20.475-79.632
		c-2.904-30.173-5.908-61.375-19.6-75.777c-3.212-3.378-3.077-8.72,0.302-11.931c3.377-3.213,8.719-3.078,11.931,0.302
		c17.703,18.621,20.99,52.767,24.169,85.789c2.68,27.841,5.452,56.629,16.789,70.624c2.935,3.621,2.377,8.936-1.245,11.871
		C383.146,332.096,381.268,332.713,379.402,332.713z"/>
	<path style="fill:#F77935;" d="M237.675,408.242c-1.641,0-3.297-0.477-4.753-1.472c-3.848-2.629-4.836-7.88-2.207-11.729
		c14.264-20.877,17.732-65.59,21.085-108.832c3.924-50.592,7.63-98.378,27.333-122.259c2.966-3.595,8.285-4.105,11.881-1.139
		c3.595,2.966,4.105,8.285,1.14,11.881c-16.305,19.764-19.975,67.072-23.523,112.823c-3.688,47.543-7.17,92.449-23.978,117.049
		C243.017,406.956,240.369,408.242,237.675,408.242z"/>
	<path style="fill:#F77935;" d="M183.847,414.322c-1.886,0-3.783-0.629-5.355-1.921c-22.287-18.323-28.495-55.218-34.499-90.898
		c-4.013-23.847-7.804-46.372-15.874-59.524c-2.437-3.972-1.194-9.169,2.779-11.607c3.973-2.436,9.17-1.193,11.607,2.779
		c9.785,15.946,13.84,40.041,18.133,65.55c5.488,32.618,11.164,66.348,28.574,80.661c3.601,2.961,4.12,8.279,1.159,11.88
		C188.702,413.272,186.284,414.322,183.847,414.322z"/>
	<path style="fill:#F77935;" d="M9.013,512c-0.45,0-0.906-0.036-1.364-0.11c-4.6-0.747-7.725-5.083-6.977-9.683
		c1.276-7.857,31.798-193.055,78.939-249.761c2.981-3.584,8.302-4.073,11.885-1.095c3.584,2.98,4.075,8.301,1.095,11.885
		C48.363,316.44,17.638,503.035,17.333,504.913C16.66,509.055,13.079,512,9.013,512z"/>
	<path style="fill:#F77935;" d="M110.277,208.704c-19.945,0-36.172,16.226-36.172,36.172s16.226,36.172,36.172,36.172
		s36.171-16.226,36.171-36.172C146.449,224.931,130.223,208.704,110.277,208.704z"/>
</g>
<path style="fill:#D9510D;" d="M110.277,208.704c-3.928,0-7.708,0.638-11.253,1.802c14.451,4.743,24.918,18.353,24.918,34.37
	s-10.467,29.627-24.918,34.37c3.545,1.164,7.324,1.802,11.253,1.802c19.945,0,36.171-16.226,36.171-36.172
	C146.449,224.931,130.223,208.704,110.277,208.704z"/>
<path style="fill:#F77935;" d="M211.552,377.366c-19.945,0-36.172,16.226-36.172,36.172c0,19.945,16.226,36.172,36.172,36.172
	s36.171-16.226,36.171-36.172C247.723,393.592,231.497,377.366,211.552,377.366z"/>
<path style="fill:#D9510D;" d="M211.552,377.366c-3.72,0-7.31,0.566-10.69,1.614c14.742,4.57,25.481,18.333,25.481,34.558
	s-10.738,29.987-25.481,34.558c3.38,1.048,6.97,1.614,10.69,1.614c19.945,0,36.171-16.226,36.171-36.172
	C247.723,393.592,231.497,377.366,211.552,377.366z"/>
<path style="fill:#F77935;" d="M312.826,120.954c-19.945,0-36.172,16.226-36.172,36.172s16.226,36.172,36.172,36.172
	s36.172-16.226,36.172-36.172S332.772,120.954,312.826,120.954z"/>
<path style="fill:#D9510D;" d="M312.826,120.954c-3.928,0-7.708,0.638-11.253,1.802c14.451,4.743,24.919,18.353,24.919,34.37
	s-10.467,29.627-24.919,34.37c3.545,1.164,7.324,1.802,11.253,1.802c19.945,0,36.172-16.226,36.172-36.172
	S332.772,120.954,312.826,120.954z"/>
<path style="fill:#F77935;" d="M406.625,300.529c-19.945,0-36.172,16.226-36.172,36.172c0,19.945,16.226,36.172,36.172,36.172
	c19.945,0,36.172-16.226,36.172-36.172C442.795,316.755,426.569,300.529,406.625,300.529z"/>
<path style="fill:#D9510D;" d="M406.625,300.529c-3.72,0-7.31,0.566-10.69,1.614c14.742,4.57,25.482,18.333,25.482,34.558
	s-10.738,29.987-25.482,34.558c3.38,1.048,6.97,1.614,10.69,1.614c19.945,0,36.172-16.226,36.172-36.172
	C442.795,316.755,426.569,300.529,406.625,300.529z"/>
<path style="fill:#808080;" d="M502.997,511.999H9.003c-4.661,0-8.44-3.779-8.44-8.44V8.44C0.563,3.779,4.342,0,9.003,0
	s8.44,3.779,8.44,8.44v486.68h485.555c4.662,0,8.44,3.779,8.44,8.44C511.437,508.22,507.66,511.999,502.997,511.999z"/>
<g>
</g>
<g>
</g>
<g>
</g>
<g>
</g>
<g>
</g>
<g>
</g>
<g>
</g>
<g>
</g>
<g>
</g>
<g>
</g>
<g>
</g>
<g>
</g>
<g>
</g>
<g>
</g>
<g>
</g>
</svg>
