<svg height="512" viewBox="0 0 64 64" width="512" xmlns="http://www.w3.org/2000/svg"><g id="book-keyboard-education"><path d="m3 5h58v38h-58z" fill="#a78966"/><path d="m32 7v32h-25v-36h21a4 4 0 0 1 4 4z" fill="#aafff5"/><path d="m57 3v36h-25v-32a4 4 0 0 1 4-4z" fill="#00e7f0"/><path d="m45 47h4 10v14h-54v-14z" fill="#ff6243"/><path d="m10 7h7v13h-7z" fill="#ffda44"/><path d="m20 7h2v2h-2z" fill="#fff"/><path d="m24 7h5v2h-5z" fill="#fff"/><path d="m20 11h9v2h-9z" fill="#fff"/><path d="m20 15h2v2h-2z" fill="#fff"/><path d="m24 15h5v2h-5z" fill="#fff"/><path d="m20 19h9v2h-9z" fill="#fff"/><path d="m10 23h15v2h-15z" fill="#fff"/><path d="m10 27h19v2h-19z" fill="#fff"/><path d="m10 31h6v2h-6z" fill="#fff"/><g fill="#cd2a00"><path d="m17 57h30v2h-30z"/><path d="m9 49h2v2h-2z"/><path d="m13 49h2v2h-2z"/><path d="m17 49h2v2h-2z"/><path d="m21 49h2v2h-2z"/><path d="m25 49h2v2h-2z"/><path d="m29 49h2v2h-2z"/><path d="m33 49h2v2h-2z"/><path d="m37 49h2v2h-2z"/><path d="m41 49h2v2h-2z"/><path d="m45 49h2v2h-2z"/><path d="m49 49h2v2h-2z"/><path d="m53 49h2v2h-2z"/><path d="m9 53h2v2h-2z"/><path d="m13 53h2v2h-2z"/><path d="m17 53h2v2h-2z"/><path d="m21 53h2v2h-2z"/><path d="m25 53h2v2h-2z"/><path d="m29 53h2v2h-2z"/><path d="m33 53h2v2h-2z"/><path d="m37 53h2v2h-2z"/><path d="m41 53h2v2h-2z"/><path d="m45 53h2v2h-2z"/><path d="m49 53h2v2h-2z"/><path d="m53 53h2v2h-2z"/><path d="m9 57h6v2h-6z"/><path d="m49 57h6v2h-6z"/></g><path d="m8 39h50v1h-50z" fill="#57565c"/><path d="m57 5h1v35h-1z" fill="#57565c"/><path d="m53 37v6a4 4 0 0 1 -4 4h-4a4 4 0 0 1 -4-4v-6z" fill="#ff9811"/><path d="m48 33h-2v-6a1 1 0 0 1 1-1h5v-4h-9v-2h10a1 1 0 0 1 1 1v6a1 1 0 0 1 -1 1h-5z" fill="#e0e0e2"/><path d="m53 35v2h-6v-6h2a4 4 0 0 1 4 4z" fill="#ffeb99"/><path d="m47 31v6h-6v-2a4 4 0 0 1 4-4z" fill="#ffc477"/></g></svg>