<svg id="Capa_1" enable-background="new 0 0 512 512" height="512" viewBox="0 0 512 512" width="512" xmlns="http://www.w3.org/2000/svg"><path d="m497 420h-482c-8.284 0-15-6.716-15-15v-390c0-8.284 6.716-15 15-15h482c8.284 0 15 6.716 15 15v390c0 8.284-6.716 15-15 15z" fill="#1fa5ff"/><path d="m497 0h-241v420h241c8.284 0 15-6.716 15-15v-390c0-8.284-6.716-15-15-15z" fill="#0d8ef0"/><path d="m30 30h452v360h-452z" fill="#bde6f3"/><path d="m256 30h226v360h-226z" fill="#9dcfeb"/><path d="m409.226 307.922c-2.611-4.877-7.694-7.922-13.226-7.922h-280c-5.532 0-10.615 3.045-13.226 7.922-2.609 4.877-2.323 10.795.745 15.398 24.52 36.78 37.48 79.586 37.48 123.791v49.889c0 8.284 6.716 15 15 15s15-6.716 15-15v-47h70v47c0 8.284 6.716 15 15 15s15-6.716 15-15v-47h70v47c0 8.284 6.716 15 15 15s15-6.716 15-15v-49.889c0-44.204 12.961-87.01 37.48-123.791 3.07-4.602 3.356-10.521.747-15.398zm-52.796 52.078h-85.43v-30h98.701c-5.086 9.731-9.512 19.751-13.271 30zm-115.43-30v30h-85.43c-3.76-10.249-8.185-20.269-13.271-30zm-71.445 90c-1.083-10.122-2.771-20.137-5.05-30h76.495v30zm101.445-30h76.495c-2.279 9.863-3.967 19.878-5.05 30h-71.445z" fill="#dcfaff"/><path d="m436.5 90h-20c-8.284 0-15-6.716-15-15s6.716-15 15-15h20c8.284 0 15 6.716 15 15s-6.716 15-15 15z" fill="#414d5a"/><path d="m95.5 90h-20c-8.284 0-15-6.716-15-15s6.716-15 15-15h20c8.284 0 15 6.716 15 15s-6.716 15-15 15z" fill="#414d5a"/><path d="m371 497v-49.889c0-44.204 12.961-87.01 37.48-123.791 3.068-4.603 3.354-10.521.745-15.398-2.61-4.877-7.693-7.922-13.225-7.922h-140v212c8.284 0 15-6.716 15-15v-47h70v47c0 8.284 6.716 15 15 15s15-6.716 15-15zm-28.555-77h-71.445v-30h76.495c-2.279 9.863-3.967 19.878-5.05 30zm-71.445-60v-30h98.701c-5.086 9.731-9.512 19.751-13.271 30z" fill="#bde6f3"/><path d="m256 330c-74.439 0-135-60.561-135-135s60.561-135 135-135 135 60.561 135 135-60.561 135-135 135z" fill="#ffa51a"/><g fill="#ff8c0a"><path d="m221 195c0-42.117-22.763-79.012-56.628-99.046-7.511 6.954-14.235 14.745-20.015 23.23 27.645 14.043 46.643 42.744 46.643 75.816s-18.998 61.773-46.643 75.816c5.781 8.485 12.504 16.276 20.015 23.23 33.865-20.034 56.628-56.929 56.628-99.046z"/><path d="m391 195c0-74.439-60.561-135-135-135v270c74.439 0 135-60.561 135-135z"/><path d="m256 60c-5.07 0-10.073.291-15 .838v268.324c4.927.547 9.93.838 15 .838s10.073-.291 15-.838v-268.324c-4.927-.547-9.93-.838-15-.838z"/></g><path d="m271 329.162v-268.324c-4.927-.547-9.93-.838-15-.838v270c5.07 0 10.073-.291 15-.838z" fill="#f06e00"/><path d="m367.643 270.816c-27.645-14.043-46.643-42.744-46.643-75.816s18.998-61.773 46.643-75.816c-5.781-8.485-12.504-16.276-20.015-23.23-33.865 20.034-56.628 56.929-56.628 99.046s22.763 79.012 56.628 99.046c7.511-6.953 14.235-14.745 20.015-23.23z" fill="#f06e00"/><path d="m416 330h-320c-16.542 0-30-13.458-30-30s13.458-30 30-30h320c16.542 0 30 13.458 30 30s-13.458 30-30 30z" fill="#414d5a"/><path d="m416 270h-160v60h160c16.542 0 30-13.458 30-30s-13.458-30-30-30z" fill="#343a43"/></svg>